<svg xmlns="http://www.w3.org/2000/svg" xmlns:xlink="http://www.w3.org/1999/xlink" id="svg" version="1.1" viewBox="31.14 35.27 323.66 70.98"><g id="svgg"><path id="path0" d="M56.765 37.420 L 54.952 39.570 58.920 42.411 C 62.802 45.190,63.116 45.314,73.444 48.116 L 84.001 50.980 91.230 50.980 C 99.281 50.980,99.708 50.828,100.285 47.756 C 100.462 46.808,100.526 45.963,100.426 45.878 C 95.047 41.296,77.462 36.041,65.931 35.570 L 58.578 35.269 56.765 37.420 M47.455 38.634 C 44.033 39.884,41.307 40.980,41.398 41.072 C 41.911 41.584,53.536 37.976,53.967 37.171 C 54.587 36.011,54.719 35.981,47.455 38.634 M48.276 44.737 C 45.854 46.916,42.452 49.993,40.717 51.575 L 37.561 54.451 48.701 50.632 C 54.828 48.532,59.861 46.608,59.886 46.357 C 59.910 46.105,58.299 44.747,56.305 43.337 L 52.679 40.775 48.276 44.737 M38.882 44.279 C 34.789 45.403,31.324 46.443,31.182 46.589 C 30.918 46.860,32.140 55.833,32.488 56.181 C 32.679 56.372,47.549 42.716,47.549 42.349 C 47.549 41.967,46.202 42.267,38.882 44.279 M62.745 47.700 C 62.745 48.775,64.793 70.348,64.906 70.461 C 65.122 70.678,81.863 53.482,81.863 53.042 C 81.863 52.834,77.837 51.590,72.917 50.277 C 67.996 48.965,63.695 47.791,63.358 47.668 C 63.021 47.545,62.745 47.559,62.745 47.700 M102.039 49.647 C 101.726 50.889,101.471 51.999,101.471 52.114 C 101.471 52.286,110.276 59.592,115.169 63.480 C 116.151 64.260,110.633 57.163,103.578 48.573 L 102.607 47.390 102.039 49.647 M48.407 52.660 C 41.735 54.837,36.333 56.791,36.403 57.002 C 36.519 57.352,62.897 72.124,63.020 71.907 C 63.181 71.623,60.989 49.061,60.784 48.898 C 60.650 48.790,55.080 50.483,48.407 52.660 M174.042 70.716 C 169.358 81.295,165.439 90.116,165.332 90.319 C 165.225 90.521,167.033 90.686,169.348 90.686 L 173.557 90.686 174.833 87.745 L 176.109 84.804 182.791 84.804 L 189.474 84.804 190.774 87.745 L 192.074 90.686 196.311 90.686 C 198.641 90.686,200.446 90.521,200.322 90.319 C 200.197 90.116,196.310 81.458,191.683 71.078 C 187.056 60.699,183.110 52.043,182.915 51.843 C 182.719 51.643,178.726 60.136,174.042 70.716 M240.727 68.527 C 236.573 77.884,232.662 86.697,232.035 88.113 L 230.895 90.686 235.092 90.686 L 239.289 90.686 240.558 87.745 L 241.827 84.804 248.529 84.804 L 255.232 84.804 256.501 87.745 L 257.770 90.686 261.956 90.686 L 266.142 90.686 265.235 88.603 C 261.023 78.924,248.941 52.177,248.649 51.884 C 248.445 51.680,244.880 59.170,240.727 68.527 M301.493 70.716 C 296.809 81.295,292.889 90.116,292.783 90.319 C 292.676 90.521,294.465 90.686,296.757 90.686 L 300.925 90.686 302.245 87.745 L 303.565 84.804 310.287 84.804 L 317.009 84.804 318.178 87.745 L 319.346 90.686 323.672 90.686 C 326.052 90.686,327.892 90.514,327.762 90.303 C 327.631 90.092,323.742 81.433,319.118 71.062 C 314.494 60.691,310.553 52.043,310.360 51.843 C 310.167 51.643,306.177 60.136,301.493 70.716 M144.164 62.709 L 150.000 73.457 150.000 82.072 L 150.000 90.686 153.922 90.686 L 157.843 90.686 157.843 81.844 L 157.843 73.003 163.480 62.703 C 166.581 57.038,169.118 52.304,169.118 52.182 C 169.118 52.060,167.165 51.961,164.779 51.961 L 160.440 51.961 157.303 57.839 C 155.578 61.073,154.012 63.720,153.824 63.722 C 153.635 63.724,152.091 61.082,150.392 57.851 L 147.304 51.977 142.816 51.969 L 138.327 51.961 144.164 62.709 M204.412 71.324 L 204.412 90.686 216.176 90.686 L 227.941 90.686 227.941 87.022 L 227.941 83.358 220.221 83.223 L 212.500 83.088 212.371 67.525 L 212.241 51.961 208.326 51.961 L 204.412 51.961 204.412 71.324 M270.098 71.324 L 270.098 90.686 274.004 90.686 L 277.910 90.686 278.048 84.926 L 278.186 79.167 283.088 78.904 C 293.687 78.335,299.569 70.924,296.849 61.568 C 294.748 54.341,290.222 51.961,278.580 51.961 L 270.098 51.961 270.098 71.324 M324.020 52.171 C 324.020 52.287,326.556 57.045,329.657 62.745 L 335.294 73.109 335.294 81.898 L 335.294 90.686 339.216 90.686 L 343.137 90.686 343.137 82.058 L 343.137 73.430 348.970 62.695 L 354.803 51.961 350.318 51.969 L 345.833 51.977 342.745 57.851 C 341.047 61.082,339.502 63.724,339.314 63.722 C 339.125 63.720,337.559 61.073,335.834 57.839 L 332.698 51.961 328.359 51.961 C 325.972 51.961,324.020 52.055,324.020 52.171 M86.112 54.044 C 86.655 54.651,90.035 58.566,93.621 62.745 C 97.208 66.924,100.508 70.735,100.955 71.213 C 101.613 71.918,100.331 55.338,99.552 53.064 C 99.529 52.996,96.273 52.941,92.317 52.941 L 85.123 52.941 86.112 54.044 M74.544 63.446 L 65.526 72.474 67.199 72.747 C 70.165 73.229,101.569 76.046,101.767 75.847 C 101.943 75.671,87.099 58.062,84.630 55.518 L 83.562 54.418 74.544 63.446 M101.949 55.684 C 101.942 55.928,102.418 60.565,103.007 65.989 L 104.078 75.851 108.534 73.781 C 114.209 71.146,118.137 69.154,118.137 68.912 C 118.137 68.808,114.884 66.020,110.907 62.716 C 106.930 59.411,103.290 56.378,102.819 55.974 C 102.347 55.570,101.955 55.440,101.949 55.684 M33.711 59.410 C 34.251 60.301,40.596 71.176,47.811 83.578 C 55.026 95.980,60.968 106.180,61.015 106.245 C 61.062 106.309,61.482 99.691,61.948 91.539 C 62.414 83.386,62.887 76.268,62.998 75.720 C 63.171 74.867,61.421 73.736,50.867 67.877 C 44.084 64.111,37.228 60.301,35.632 59.410 L 32.730 57.790 33.711 59.410 M287.052 60.612 C 292.940 64.470,289.111 71.569,281.143 71.569 L 277.941 71.569 277.941 65.686 L 277.941 59.804 281.880 59.804 C 284.713 59.804,286.165 60.031,287.052 60.612 M251.015 75.613 L 251.946 77.941 248.557 77.941 L 245.167 77.941 246.409 74.877 C 248.764 69.071,248.373 69.008,251.015 75.613 M312.206 74.390 L 313.670 77.941 310.260 77.941 L 306.850 77.941 307.639 76.103 C 308.074 75.092,308.785 73.330,309.220 72.187 C 310.165 69.706,310.321 69.821,312.206 74.390 M184.693 74.142 L 186.190 77.696 184.517 77.848 C 183.596 77.932,182.090 77.932,181.170 77.848 L 179.496 77.696 180.993 74.142 C 181.816 72.187,182.649 70.588,182.843 70.588 C 183.037 70.588,183.870 72.187,184.693 74.142 M109.804 75.687 C 105.422 77.886,99.766 81.527,89.951 88.466 C 76.442 98.017,72.148 101.259,77.451 97.903 C 89.051 90.563,116.732 72.555,116.376 72.580 C 116.131 72.597,113.174 73.995,109.804 75.687 M64.694 75.613 C 64.687 75.950,64.267 82.733,63.760 90.686 C 63.253 98.640,62.895 105.207,62.965 105.280 C 63.036 105.353,71.602 99.397,82.003 92.045 C 92.403 84.692,100.762 78.548,100.579 78.392 C 100.300 78.154,67.197 74.960,65.319 74.990 C 64.982 74.996,64.700 75.276,64.694 75.613 " stroke="none" fill="#000000" fill-rule="evenodd"/></g></svg>